<svg width="32" height="32" viewBox="0 0 32 32" xmlns="http://www.w3.org/2000/svg">
  <rect width="32" height="32" rx="6" fill="#1F2C22"/>
  <path d="M6.24 21.64L12.55 11.07Q12.61 10.98 12.60 10.95Q12.59 10.93 12.46 10.93Q11.35 10.93 10.49 10.97Q9.64 11.02 9 11.14Q8.36 11.27 7.89 11.53Q7.42 11.79 7.06 12.21Q6.70 12.64 6.40 13.27Q6.38 13.30 6.27 13.29Q6.16 13.27 6.18 13.21L6.90 10.08Q6.92 10.05 7.03 10.06Q7.14 10.08 7.12 10.12Q7.06 10.44 7.26 10.53Q7.46 10.62 8.14 10.62Q9.22 10.62 10.79 10.62Q12.36 10.62 14.71 10.62Q14.80 10.62 14.85 10.71Q14.89 10.80 14.84 10.86L8.61 21.39Q8.54 21.48 8.56 21.50Q8.58 21.53 8.68 21.53Q9.85 21.53 10.81 21.53Q11.76 21.53 12.32 21.53Q12.99 21.53 13.59 21.20Q14.19 20.86 14.62 20.31Q15.06 19.77 15.16 19.12Q15.18 19.06 15.27 19.06Q15.36 19.06 15.36 19.12L15.11 21.73Q15.11 21.78 15.07 21.84Q15.04 21.91 14.95 21.91Q13.62 21.89 12.13 21.88Q10.65 21.87 9.16 21.87Q7.68 21.87 6.33 21.87Q6.25 21.87 6.22 21.79Q6.18 21.71 6.24 21.64M21.55 15.84L21.75 15.52Q22.99 15.52 23.90 15.91Q24.81 16.31 25.32 17Q25.82 17.70 25.82 18.61Q25.82 19.55 25.28 20.31Q24.74 21.06 23.80 21.50Q22.85 21.94 21.66 21.94Q21.18 21.94 20.43 21.89Q19.68 21.84 19.07 21.84Q18.42 21.84 17.84 21.85Q17.25 21.87 16.78 21.87Q16.73 21.87 16.73 21.76Q16.73 21.66 16.78 21.66Q17.29 21.66 17.57 21.57Q17.85 21.48 17.96 21.21Q18.08 20.94 18.08 20.41L18.08 12.08Q18.08 11.56 17.97 11.30Q17.86 11.04 17.59 10.94Q17.31 10.84 16.80 10.84Q16.77 10.84 16.77 10.73Q16.77 10.62 16.80 10.62Q17.27 10.62 17.85 10.65Q18.42 10.68 19.07 10.68Q19.59 10.68 20.15 10.62Q20.71 10.57 21.28 10.57Q22.36 10.57 23.13 10.83Q23.89 11.09 24.31 11.60Q24.72 12.12 24.72 12.89Q24.72 13.88 23.93 14.70Q23.14 15.52 21.55 15.84M21.01 10.96Q20.67 10.96 20.47 11.07Q20.26 11.18 20.18 11.42Q20.10 11.67 20.10 12.12L20.10 15.64L19.43 15.52Q20.02 15.54 20.40 15.54Q20.78 15.55 20.82 15.55Q21.79 15.55 22.27 14.82Q22.76 14.10 22.76 13.05Q22.76 12.37 22.55 11.90Q22.35 11.43 21.96 11.20Q21.57 10.96 21.01 10.96M21.36 21.49Q22.60 21.49 23.16 20.85Q23.71 20.22 23.71 19.05Q23.71 17.71 23.08 16.88Q22.44 16.04 21.03 16.04Q20.85 16.04 20.42 16.05Q19.99 16.06 19.50 16.15L20.10 15.93L20.10 20.41Q20.10 20.77 20.18 21.02Q20.26 21.26 20.53 21.38Q20.80 21.49 21.36 21.49" fill="#ECE8DC"/>
</svg>